<svg width="390" height="73" viewBox="0 0 390 73" fill="none" xmlns="http://www.w3.org/2000/svg">
<path d="M71 48.1763C71 46.5928 71.3426 45.1844 72.0277 43.9511C72.7129 42.7026 73.6645 41.7357 74.8826 41.0505C76.1159 40.3502 77.5091 40 79.0621 40C80.9654 40 82.5946 40.5024 83.9497 41.5073C85.3048 42.5122 86.2107 43.8826 86.6675 45.6183H82.3738C82.054 44.9484 81.5973 44.4383 81.0034 44.0881C80.4249 43.7379 79.7625 43.5628 79.0164 43.5628C77.8136 43.5628 76.8391 43.9815 76.0931 44.819C75.347 45.6564 74.974 46.7755 74.974 48.1763C74.974 49.5771 75.347 50.6962 76.0931 51.5336C76.8391 52.3711 77.8136 52.7898 79.0164 52.7898C79.7625 52.7898 80.4249 52.6147 81.0034 52.2645C81.5973 51.9143 82.054 51.4042 82.3738 50.7343H86.6675C86.2107 52.47 85.3048 53.8404 83.9497 54.8453C82.5946 55.835 80.9654 56.3298 79.0621 56.3298C77.5091 56.3298 76.1159 55.9872 74.8826 55.3021C73.6645 54.6017 72.7129 53.6348 72.0277 52.4015C71.3426 51.1682 71 49.7598 71 48.1763ZM92.9646 45.5955C93.4214 44.8951 93.9924 44.347 94.6776 43.9511C95.3627 43.54 96.124 43.3344 96.9615 43.3344V47.4683H95.888C94.9136 47.4683 94.1827 47.6815 93.6955 48.1078C93.2083 48.5189 92.9646 49.2497 92.9646 50.3003V56.2156H89.0592V43.4715H92.9646V45.5955ZM111.846 43.4715L103.853 62.268H99.6504L102.574 55.7817L97.3893 43.4715H101.752L104.698 51.4423L107.621 43.4715H111.846ZM117.164 45.2758C117.544 44.6819 118.07 44.2023 118.74 43.8369C119.41 43.4715 120.194 43.2888 121.092 43.2888C122.143 43.2888 123.094 43.5552 123.947 44.0881C124.8 44.621 125.47 45.3823 125.957 46.372C126.459 47.3617 126.71 48.5113 126.71 49.8207C126.71 51.1301 126.459 52.2873 125.957 53.2922C125.47 54.2819 124.8 55.0508 123.947 55.599C123.094 56.1319 122.143 56.3983 121.092 56.3983C120.209 56.3983 119.425 56.2156 118.74 55.8502C118.07 55.4848 117.544 55.0128 117.164 54.4342V62.2908H113.259V43.4715H117.164V45.2758ZM122.736 49.8207C122.736 48.8462 122.462 48.0849 121.914 47.5368C121.381 46.9735 120.719 46.6918 119.927 46.6918C119.151 46.6918 118.488 46.9735 117.94 47.5368C117.407 48.1002 117.141 48.8691 117.141 49.8436C117.141 50.818 117.407 51.5869 117.94 52.1503C118.488 52.7136 119.151 52.9953 119.927 52.9953C120.704 52.9953 121.366 52.7136 121.914 52.1503C122.462 51.5717 122.736 50.7952 122.736 49.8207ZM135.862 52.904V56.2156H133.875C132.459 56.2156 131.355 55.873 130.564 55.1879C129.772 54.4875 129.376 53.3531 129.376 51.7849V46.7146H127.823V43.4715H129.376V40.3654H133.281V43.4715H135.839V46.7146H133.281V51.8305C133.281 52.2112 133.373 52.4853 133.556 52.6527C133.738 52.8202 134.043 52.904 134.469 52.904H135.862ZM143.839 56.3983C142.59 56.3983 141.464 56.1319 140.459 55.599C139.469 55.0661 138.685 54.3048 138.106 53.3151C137.543 52.3254 137.261 51.1682 137.261 49.8436C137.261 48.5341 137.55 47.3846 138.129 46.3949C138.708 45.39 139.499 44.621 140.504 44.0881C141.509 43.5552 142.636 43.2888 143.884 43.2888C145.133 43.2888 146.26 43.5552 147.265 44.0881C148.27 44.621 149.061 45.39 149.64 46.3949C150.218 47.3846 150.508 48.5341 150.508 49.8436C150.508 51.153 150.211 52.3102 149.617 53.3151C149.038 54.3048 148.239 55.0661 147.219 55.599C146.214 56.1319 145.087 56.3983 143.839 56.3983ZM143.839 53.0182C144.585 53.0182 145.217 52.7441 145.734 52.196C146.267 51.6478 146.534 50.8637 146.534 49.8436C146.534 48.8234 146.275 48.0393 145.757 47.4911C145.255 46.943 144.631 46.6689 143.884 46.6689C143.123 46.6689 142.491 46.943 141.989 47.4911C141.486 48.024 141.235 48.8082 141.235 49.8436C141.235 50.8637 141.479 51.6478 141.966 52.196C142.468 52.7441 143.093 53.0182 143.839 53.0182Z" fill="white"/>
<g clip-path="url(#clip0_1_27837)">
<g clip-path="url(#clip1_1_27837)">
<path d="M48.1289 52.2175C48.0604 52.0421 41.9866 40.5089 41.8953 40.3335C41.5756 39.588 41.0048 38.9521 40.2512 38.5136C38.356 37.4611 35.9357 38.0751 34.8396 39.8949C34.0861 41.1447 34.1318 42.6138 34.8625 43.7759C34.931 43.9294 40.7307 54.9802 40.8449 55.1556C40.9134 55.331 41.0048 55.4845 41.0961 55.6599C41.4158 56.4054 41.9866 57.0413 42.7401 57.4798C44.6353 58.5322 47.0557 57.9402 48.1517 56.1203C48.9281 54.8706 48.8596 53.3796 48.1289 52.2175Z" fill="white" fill-opacity="0.4"/>
<path d="M41.4462 44.41C42.1146 43.7295 42.5294 42.8074 42.5294 41.7975C42.5294 39.7119 40.7548 37.9995 38.5424 37.9995C37.1826 37.9995 35.9842 38.6362 35.2698 39.6241C35.1315 39.7558 25.1984 51.4353 25.0832 51.589C24.4148 52.2695 24 53.1916 24 54.2015C24 56.3091 25.7976 57.9995 27.9871 57.9995C29.3468 57.9995 30.5452 57.3628 31.2597 56.3749C31.3979 56.2212 41.354 44.5637 41.4462 44.41Z" fill="white"/>
<path d="M57.9183 44.41C58.5858 43.7295 59.0001 42.8074 59.0001 41.7975C59.0001 39.69 57.2047 37.9995 55.018 37.9995C53.66 37.9995 52.463 38.6362 51.7495 39.6241C51.6114 39.7558 41.6676 51.4353 41.5525 51.589C40.885 52.2695 40.4707 53.1916 40.4707 54.2015C40.4707 56.3091 42.2661 57.9995 44.4528 57.9995C45.8109 57.9995 47.0078 57.3628 47.7213 56.3749C47.8825 56.2212 57.8032 44.5637 57.9183 44.41Z" fill="white"/>
</g>
</g>
<rect x="321" y="24" width="45" height="45" rx="22.5" fill="#0328EE"/>
<rect x="335.414" y="37" width="25" height="2" transform="rotate(45 335.414 37)" fill="white"/>
<rect x="334" y="55" width="25" height="2" transform="rotate(-45 334 55)" fill="white"/>
<defs>
<clipPath id="clip0_1_27837">
<rect width="35" height="20" fill="white" transform="translate(24 38)"/>
</clipPath>
<clipPath id="clip1_1_27837">
<rect width="35" height="20" fill="white" transform="translate(24 38)"/>
</clipPath>
</defs>
</svg>
